<mxfile host="app.diagrams.net" modified="2024-10-13T06:51:30.233Z" agent="5.0 (Macintosh; Intel Mac OS X 10_15_7) AppleWebKit/537.36 (KHTML, like Gecko) Chrome/129.0.0.0 Safari/537.36" version="20.6.2" etag="-1ztGjs7XlrqdeUNMbdV" type="github">
  <diagram id="7gBdcf_yhOrao0m4nIgl" name="架构设计">
    <mxGraphModel dx="1018" dy="648" grid="0" gridSize="10" guides="1" tooltips="1" connect="1" arrows="1" fold="1" page="1" pageScale="1" pageWidth="3300" pageHeight="4681" math="0" shadow="0">
      <root>
        <mxCell id="0" />
        <mxCell id="1" parent="0" />
        <mxCell id="202jJ2sAWeIkZAkwEwn0-51" value="" style="rounded=0;whiteSpace=wrap;html=1;strokeWidth=1;dashed=1;fillColor=#eeeeee;strokeColor=#36393d;" vertex="1" parent="1">
          <mxGeometry x="240" y="480" width="440" height="99" as="geometry" />
        </mxCell>
        <mxCell id="202jJ2sAWeIkZAkwEwn0-38" style="edgeStyle=none;rounded=0;orthogonalLoop=1;jettySize=auto;html=1;exitX=1;exitY=0.5;exitDx=0;exitDy=0;entryX=0;entryY=0.5;entryDx=0;entryDy=0;strokeWidth=1;startArrow=none;startFill=0;endArrow=classic;endFill=1;fillColor=#d5e8d4;strokeColor=#82b366;" edge="1" parent="1" source="202jJ2sAWeIkZAkwEwn0-35" target="202jJ2sAWeIkZAkwEwn0-7">
          <mxGeometry relative="1" as="geometry" />
        </mxCell>
        <mxCell id="202jJ2sAWeIkZAkwEwn0-39" style="edgeStyle=none;rounded=0;orthogonalLoop=1;jettySize=auto;html=1;entryX=0.339;entryY=0.986;entryDx=0;entryDy=0;entryPerimeter=0;strokeWidth=1;startArrow=classic;startFill=1;endArrow=none;endFill=0;fillColor=#d5e8d4;strokeColor=#82b366;" edge="1" parent="1" source="202jJ2sAWeIkZAkwEwn0-35" target="202jJ2sAWeIkZAkwEwn0-18">
          <mxGeometry relative="1" as="geometry" />
        </mxCell>
        <mxCell id="202jJ2sAWeIkZAkwEwn0-53" style="edgeStyle=none;rounded=0;orthogonalLoop=1;jettySize=auto;html=1;exitX=0.5;exitY=1;exitDx=0;exitDy=0;strokeWidth=1;startArrow=none;startFill=0;endArrow=classic;endFill=1;fillColor=#d5e8d4;strokeColor=#82b366;" edge="1" parent="1" source="202jJ2sAWeIkZAkwEwn0-35">
          <mxGeometry relative="1" as="geometry">
            <mxPoint x="390" y="480" as="targetPoint" />
          </mxGeometry>
        </mxCell>
        <mxCell id="202jJ2sAWeIkZAkwEwn0-35" value="" style="rounded=0;whiteSpace=wrap;html=1;dashed=1;fillColor=#e1d5e7;strokeColor=#9673a6;" vertex="1" parent="1">
          <mxGeometry x="240" y="310" width="300" height="140" as="geometry" />
        </mxCell>
        <mxCell id="202jJ2sAWeIkZAkwEwn0-18" value="" style="rounded=0;whiteSpace=wrap;html=1;dashed=1;fillColor=#d5e8d4;strokeColor=#82b366;" vertex="1" parent="1">
          <mxGeometry x="240" y="190" width="440" height="70" as="geometry" />
        </mxCell>
        <mxCell id="202jJ2sAWeIkZAkwEwn0-24" style="edgeStyle=orthogonalEdgeStyle;rounded=0;orthogonalLoop=1;jettySize=auto;html=1;exitX=0.25;exitY=1;exitDx=0;exitDy=0;entryX=0.25;entryY=0;entryDx=0;entryDy=0;strokeWidth=2;fillColor=#f8cecc;strokeColor=#b85450;" edge="1" parent="1" source="202jJ2sAWeIkZAkwEwn0-17" target="202jJ2sAWeIkZAkwEwn0-18">
          <mxGeometry relative="1" as="geometry" />
        </mxCell>
        <mxCell id="202jJ2sAWeIkZAkwEwn0-25" style="edgeStyle=orthogonalEdgeStyle;rounded=0;orthogonalLoop=1;jettySize=auto;html=1;exitX=0.75;exitY=1;exitDx=0;exitDy=0;entryX=0.75;entryY=0;entryDx=0;entryDy=0;strokeWidth=2;startArrow=classic;startFill=1;fillColor=#d5e8d4;strokeColor=#82b366;" edge="1" parent="1" source="202jJ2sAWeIkZAkwEwn0-17" target="202jJ2sAWeIkZAkwEwn0-18">
          <mxGeometry relative="1" as="geometry" />
        </mxCell>
        <mxCell id="202jJ2sAWeIkZAkwEwn0-34" style="edgeStyle=orthogonalEdgeStyle;curved=1;rounded=0;orthogonalLoop=1;jettySize=auto;html=1;exitX=1;exitY=0.5;exitDx=0;exitDy=0;entryX=0.4;entryY=0.1;entryDx=0;entryDy=0;entryPerimeter=0;strokeWidth=1;startArrow=classic;startFill=1;endArrow=none;endFill=0;fillColor=#d5e8d4;strokeColor=#82b366;" edge="1" parent="1" source="202jJ2sAWeIkZAkwEwn0-17" target="202jJ2sAWeIkZAkwEwn0-29">
          <mxGeometry relative="1" as="geometry" />
        </mxCell>
        <mxCell id="202jJ2sAWeIkZAkwEwn0-17" value="" style="rounded=0;whiteSpace=wrap;html=1;fillColor=#fff2cc;strokeColor=#d6b656;dashed=1;" vertex="1" parent="1">
          <mxGeometry x="240" y="60" width="440" height="77.5" as="geometry" />
        </mxCell>
        <mxCell id="202jJ2sAWeIkZAkwEwn0-2" value="账号服务" style="rounded=1;whiteSpace=wrap;html=1;" vertex="1" parent="1">
          <mxGeometry x="260" y="350" width="120" height="40" as="geometry" />
        </mxCell>
        <mxCell id="202jJ2sAWeIkZAkwEwn0-4" value="用户关系服务" style="rounded=1;whiteSpace=wrap;html=1;" vertex="1" parent="1">
          <mxGeometry x="262.5" y="400" width="117.5" height="40" as="geometry" />
        </mxCell>
        <mxCell id="202jJ2sAWeIkZAkwEwn0-5" value="IM业务服务" style="rounded=1;whiteSpace=wrap;html=1;" vertex="1" parent="1">
          <mxGeometry x="405" y="350" width="115" height="40" as="geometry" />
        </mxCell>
        <mxCell id="202jJ2sAWeIkZAkwEwn0-6" value="消息存储服务" style="rounded=1;whiteSpace=wrap;html=1;" vertex="1" parent="1">
          <mxGeometry x="405" y="400" width="115" height="40" as="geometry" />
        </mxCell>
        <mxCell id="202jJ2sAWeIkZAkwEwn0-30" style="edgeStyle=orthogonalEdgeStyle;rounded=0;orthogonalLoop=1;jettySize=auto;html=1;exitX=1;exitY=0.5;exitDx=0;exitDy=0;entryX=0.55;entryY=0.95;entryDx=0;entryDy=0;entryPerimeter=0;strokeWidth=1;startArrow=none;startFill=0;curved=1;fillColor=#d5e8d4;strokeColor=#82b366;" edge="1" parent="1" source="202jJ2sAWeIkZAkwEwn0-7" target="202jJ2sAWeIkZAkwEwn0-29">
          <mxGeometry relative="1" as="geometry" />
        </mxCell>
        <mxCell id="202jJ2sAWeIkZAkwEwn0-7" value="APNS" style="rounded=1;whiteSpace=wrap;html=1;fillColor=#ffe6cc;strokeColor=#d79b00;" vertex="1" parent="1">
          <mxGeometry x="580" y="350" width="100" height="60" as="geometry" />
        </mxCell>
        <mxCell id="202jJ2sAWeIkZAkwEwn0-9" value="" style="verticalLabelPosition=bottom;html=1;verticalAlign=top;align=center;strokeColor=none;fillColor=#00BEF2;shape=mxgraph.azure.mobile;pointerEvents=1;" vertex="1" parent="1">
          <mxGeometry x="290" y="80" width="35" height="50" as="geometry" />
        </mxCell>
        <mxCell id="202jJ2sAWeIkZAkwEwn0-10" value="" style="verticalLabelPosition=bottom;html=1;verticalAlign=top;align=center;strokeColor=none;fillColor=#00BEF2;shape=mxgraph.azure.mobile;pointerEvents=1;" vertex="1" parent="1">
          <mxGeometry x="390" y="80" width="35" height="50" as="geometry" />
        </mxCell>
        <mxCell id="202jJ2sAWeIkZAkwEwn0-11" value="" style="verticalLabelPosition=bottom;html=1;verticalAlign=top;align=center;strokeColor=none;fillColor=#00BEF2;shape=mxgraph.azure.mobile;pointerEvents=1;" vertex="1" parent="1">
          <mxGeometry x="485" y="80" width="35" height="50" as="geometry" />
        </mxCell>
        <mxCell id="202jJ2sAWeIkZAkwEwn0-12" value="" style="verticalLabelPosition=bottom;html=1;verticalAlign=top;align=center;strokeColor=none;fillColor=#00BEF2;shape=mxgraph.azure.mobile;pointerEvents=1;" vertex="1" parent="1">
          <mxGeometry x="600" y="80" width="35" height="50" as="geometry" />
        </mxCell>
        <mxCell id="202jJ2sAWeIkZAkwEwn0-19" value="&lt;b&gt;客户端&lt;/b&gt;" style="text;html=1;strokeColor=none;fillColor=none;align=center;verticalAlign=middle;whiteSpace=wrap;rounded=0;" vertex="1" parent="1">
          <mxGeometry x="425" y="56" width="60" height="30" as="geometry" />
        </mxCell>
        <mxCell id="202jJ2sAWeIkZAkwEwn0-20" value="建连和保活" style="rounded=1;whiteSpace=wrap;html=1;fillColor=#ffe6cc;strokeColor=#d79b00;" vertex="1" parent="1">
          <mxGeometry x="262.5" y="215" width="90" height="30" as="geometry" />
        </mxCell>
        <mxCell id="202jJ2sAWeIkZAkwEwn0-21" value="消息路由转发" style="rounded=1;whiteSpace=wrap;html=1;fillColor=#ffe6cc;strokeColor=#d79b00;" vertex="1" parent="1">
          <mxGeometry x="400" y="215" width="90" height="30" as="geometry" />
        </mxCell>
        <mxCell id="202jJ2sAWeIkZAkwEwn0-23" value="长短链接支持" style="rounded=1;whiteSpace=wrap;html=1;fillColor=#ffe6cc;strokeColor=#d79b00;" vertex="1" parent="1">
          <mxGeometry x="540" y="215" width="90" height="30" as="geometry" />
        </mxCell>
        <mxCell id="202jJ2sAWeIkZAkwEwn0-26" value="短连接接入" style="text;html=1;strokeColor=none;fillColor=none;align=center;verticalAlign=middle;whiteSpace=wrap;rounded=0;dashed=1;" vertex="1" parent="1">
          <mxGeometry x="360" y="150" width="70" height="30" as="geometry" />
        </mxCell>
        <mxCell id="202jJ2sAWeIkZAkwEwn0-27" value="长连接接入" style="text;html=1;strokeColor=none;fillColor=none;align=center;verticalAlign=middle;whiteSpace=wrap;rounded=0;dashed=1;" vertex="1" parent="1">
          <mxGeometry x="580" y="150" width="70" height="30" as="geometry" />
        </mxCell>
        <mxCell id="202jJ2sAWeIkZAkwEwn0-28" value="&lt;b&gt;网关接入层&lt;/b&gt;" style="text;html=1;strokeColor=none;fillColor=none;align=center;verticalAlign=middle;whiteSpace=wrap;rounded=0;" vertex="1" parent="1">
          <mxGeometry x="405" y="185" width="100" height="30" as="geometry" />
        </mxCell>
        <mxCell id="202jJ2sAWeIkZAkwEwn0-29" value="三方推送平台" style="ellipse;shape=cloud;whiteSpace=wrap;html=1;fillColor=#dae8fc;strokeColor=#6c8ebf;" vertex="1" parent="1">
          <mxGeometry x="760" y="185" width="120" height="80" as="geometry" />
        </mxCell>
        <mxCell id="202jJ2sAWeIkZAkwEwn0-36" value="&lt;b&gt;服务层&lt;/b&gt;" style="text;html=1;strokeColor=none;fillColor=none;align=center;verticalAlign=middle;whiteSpace=wrap;rounded=0;dashed=1;" vertex="1" parent="1">
          <mxGeometry x="360" y="310" width="60" height="30" as="geometry" />
        </mxCell>
        <mxCell id="202jJ2sAWeIkZAkwEwn0-40" value="服务发现调用" style="text;html=1;strokeColor=none;fillColor=none;align=center;verticalAlign=middle;whiteSpace=wrap;rounded=0;dashed=1;" vertex="1" parent="1">
          <mxGeometry x="390" y="270" width="75" height="30" as="geometry" />
        </mxCell>
        <mxCell id="202jJ2sAWeIkZAkwEwn0-41" value="" style="shape=cylinder3;whiteSpace=wrap;html=1;boundedLbl=1;backgroundOutline=1;size=15;fillColor=#dae8fc;strokeColor=#6c8ebf;" vertex="1" parent="1">
          <mxGeometry x="250" y="499" width="60" height="51" as="geometry" />
        </mxCell>
        <mxCell id="202jJ2sAWeIkZAkwEwn0-42" value="Redis" style="sketch=0;aspect=fixed;html=1;points=[];align=center;image;fontSize=12;image=img/lib/mscae/Cache_Redis_Product.svg;" vertex="1" parent="1">
          <mxGeometry x="352.5" y="501" width="59.52" height="50" as="geometry" />
        </mxCell>
        <mxCell id="202jJ2sAWeIkZAkwEwn0-43" value="DB" style="text;html=1;strokeColor=none;fillColor=none;align=center;verticalAlign=middle;whiteSpace=wrap;rounded=0;" vertex="1" parent="1">
          <mxGeometry x="250" y="550" width="60" height="30" as="geometry" />
        </mxCell>
        <mxCell id="202jJ2sAWeIkZAkwEwn0-45" value="" style="strokeWidth=1;html=1;shape=mxgraph.flowchart.direct_data;whiteSpace=wrap;fillColor=#f9f7ed;strokeColor=#36393d;" vertex="1" parent="1">
          <mxGeometry x="450" y="508" width="90" height="34" as="geometry" />
        </mxCell>
        <mxCell id="202jJ2sAWeIkZAkwEwn0-47" value="Kafka" style="text;html=1;align=center;verticalAlign=middle;resizable=0;points=[];autosize=1;strokeColor=none;fillColor=none;" vertex="1" parent="1">
          <mxGeometry x="470" y="542" width="50" height="30" as="geometry" />
        </mxCell>
        <mxCell id="202jJ2sAWeIkZAkwEwn0-49" value="音视频存储" style="rounded=1;whiteSpace=wrap;html=1;strokeWidth=1;fillColor=#ffcc99;strokeColor=#36393d;" vertex="1" parent="1">
          <mxGeometry x="570" y="501" width="90" height="49" as="geometry" />
        </mxCell>
        <mxCell id="202jJ2sAWeIkZAkwEwn0-50" value="对象存储" style="text;html=1;strokeColor=none;fillColor=none;align=center;verticalAlign=middle;whiteSpace=wrap;rounded=0;strokeWidth=1;" vertex="1" parent="1">
          <mxGeometry x="565" y="550" width="60" height="30" as="geometry" />
        </mxCell>
        <mxCell id="202jJ2sAWeIkZAkwEwn0-54" value="&lt;b&gt;存储层&lt;/b&gt;" style="text;html=1;strokeColor=none;fillColor=none;align=center;verticalAlign=middle;whiteSpace=wrap;rounded=0;dashed=1;strokeWidth=1;" vertex="1" parent="1">
          <mxGeometry x="425" y="478" width="60" height="30" as="geometry" />
        </mxCell>
      </root>
    </mxGraphModel>
  </diagram>
</mxfile>
